<svg width="1999" height="121" viewBox="0 0 1999 121" fill="none" xmlns="http://www.w3.org/2000/svg">
<path d="M65.8 90H12.3V20.4H39.4C45.2 20.4 49.9333 21.4333 53.6 23.5C57.2 25.5 60 28.2333 62 31.7C64 35.1667 65 39 65 43.2C65 48.4 63.4 53.0667 60.2 57.2C57 61.2667 52.9667 63.9667 48.1 65.3L65.8 90ZM18.6 24.1L45.8 62.1C50.2667 61.1667 53.9667 58.9333 56.9 55.4C59.8333 51.8667 61.3 47.8 61.3 43.2C61.3 39.5333 60.4 36.2 58.6 33.2C56.8 30.2 54.2667 27.9 51 26.3C48.0667 24.8333 44.2333 24.1 39.5 24.1H18.6ZM16 26.5V62.4H41.7L16 26.5ZM16 86.3H58.8L44.2 66L41.1 66.1H16V86.3ZM87.0234 20.4H136.023V24.1H90.7234V52.3H130.123V56H90.7234V86.3H136.023V90H87.0234V20.4ZM183.147 20.4H187.047L215.647 90H211.647L202.247 67H167.947L158.447 90H154.547L183.147 20.4ZM169.447 63.4H200.747L185.047 25.2L169.447 63.4ZM235.17 63.4C235.17 67.8 236.27 71.8667 238.47 75.6C240.737 79.3333 243.737 82.3 247.47 84.5C251.27 86.7 255.37 87.8 259.77 87.8C264.304 87.8 268.404 86.9 272.07 85.1C275.737 83.3 278.604 80.8 280.67 77.6C282.804 74.4 283.904 70.8 283.97 66.8H287.57C287.57 71.4 286.337 75.6 283.87 79.4C281.47 83.1333 278.137 86.1 273.87 88.3C269.67 90.4333 264.97 91.5 259.77 91.5C254.704 91.5 250.004 90.2333 245.67 87.7C241.337 85.1667 237.904 81.7667 235.37 77.5C232.837 73.1667 231.57 68.4667 231.57 63.4V47C231.57 41.9333 232.804 37.2667 235.27 33C237.804 28.6667 241.204 25.2333 245.47 22.7C249.804 20.1667 254.504 18.9 259.57 18.9C264.704 18.9 269.37 20 273.57 22.2C277.837 24.3333 281.204 27.3 283.67 31.1C286.137 34.8333 287.37 39 287.37 43.6H283.77C283.704 39.6 282.604 36 280.47 32.8C278.337 29.6 275.437 27.1 271.77 25.3C268.17 23.5 264.104 22.6 259.57 22.6C255.17 22.6 251.104 23.7 247.37 25.9C243.637 28.1 240.67 31.0667 238.47 34.8C236.27 38.5333 235.17 42.6 235.17 47V63.4ZM361.194 20.4V24.1H334.894V90H331.294V24.1H304.994V20.4H361.194ZM453.941 90V20.4H457.841L506.441 67.6V20.4H510.141V90H506.441V72.8L457.641 25.2V90H453.941ZM553.264 20.4H557.164L585.764 90H581.764L572.364 67H538.064L528.564 90H524.664L553.264 20.4ZM539.564 63.4H570.864L555.164 25.2L539.564 63.4ZM657.288 20.4V24.1H630.988V90H627.388V24.1H601.088V20.4H657.288ZM725.811 20.4V24.1H705.011V86.3H725.811V90H680.711V86.3H701.411V24.1H680.711V20.4H725.811ZM750.534 20.4L777.134 85.1L803.734 20.4H807.634L779.034 90H775.134L746.534 20.4H750.534ZM827.258 20.4H876.258V24.1H830.958V52.3H870.358V56H830.958V86.3H876.258V90H827.258V20.4ZM1014.4 22.7C1018.4 24.5667 1021.54 27.3333 1023.8 31C1026.14 34.6667 1027.3 38.7333 1027.3 43.2C1027.3 48.4 1025.7 53.0667 1022.5 57.2C1019.37 61.2667 1015.34 63.9667 1010.4 65.3L1028.1 90H1023.7L1006.6 66L1003.4 66.1H978.305V90H974.605V20.4H1001.1C1004.04 20.4 1006.54 20.6 1008.6 21C1010.74 21.3333 1012.67 21.9 1014.4 22.7ZM1004.4 62.4C1007.87 62.4 1011.07 61.5333 1014 59.8C1016.94 58.0667 1019.27 55.7333 1021 52.8C1022.74 49.8667 1023.6 46.6667 1023.6 43.2C1023.6 39.3333 1022.57 35.8333 1020.5 32.7C1018.5 29.5667 1015.7 27.2333 1012.1 25.7C1009.5 24.6333 1005.84 24.1 1001.1 24.1H978.305V62.4H1004.4ZM1049.33 20.4H1098.33V24.1H1053.03V52.3H1092.43V56H1053.03V86.3H1098.33V90H1049.33V20.4ZM1145.45 20.4H1149.35L1177.95 90H1173.95L1164.55 67H1130.25L1120.75 90H1116.85L1145.45 20.4ZM1131.75 63.4H1163.05L1147.35 25.2L1131.75 63.4ZM1194.18 90V20.4H1198.08L1246.68 67.6V20.4H1250.38V90H1246.68V72.8L1197.88 25.2V90H1194.18ZM1318 20.4V24.1H1297.2V86.3H1318V90H1272.9V86.3H1293.6V24.1H1272.9V20.4H1318ZM1345.02 90H1341.32V20.4H1345.32L1369.62 63.3L1393.82 20.4H1397.52V90H1393.82V27.8L1371.32 67.5H1367.82L1345.02 27.3V90ZM1441.55 20.4H1445.45L1474.05 90H1470.05L1460.65 67H1426.35L1416.85 90H1412.95L1441.55 20.4ZM1427.85 63.4H1459.15L1443.45 25.2L1427.85 63.4ZM1545.57 20.4V24.1H1519.27V90H1515.67V24.1H1489.37V20.4H1545.57ZM1567.49 20.4H1616.49V24.1H1571.19V52.3H1610.59V56H1571.19V86.3H1616.49V90H1567.49V20.4ZM1664.82 20.4C1669.88 20.4 1674.55 21.6667 1678.82 24.2C1683.15 26.7333 1686.58 30.1667 1689.12 34.5C1691.65 38.7667 1692.92 43.4333 1692.92 48.5V61.9C1692.92 66.9667 1691.65 71.6667 1689.12 76C1686.58 80.2667 1683.15 83.6667 1678.82 86.2C1674.55 88.7333 1669.88 90 1664.82 90H1639.12V20.4H1664.82ZM1689.22 48.5C1689.22 44.1 1688.12 40.0333 1685.92 36.3C1683.72 32.5667 1680.72 29.6 1676.92 27.4C1673.18 25.2 1669.12 24.1 1664.72 24.1H1642.82V86.3H1664.72C1669.12 86.3 1673.18 85.2 1676.92 83C1680.72 80.8 1683.72 77.8333 1685.92 74.1C1688.12 70.3667 1689.22 66.3 1689.22 61.9V48.5ZM1788.56 90V20.4H1814.46C1819.53 20.4 1824.2 21.6667 1828.46 24.2C1832.8 26.7333 1836.23 30.1667 1838.76 34.5C1841.3 38.7667 1842.56 43.4333 1842.56 48.5V61.9C1842.56 66.9667 1841.3 71.6667 1838.76 76C1836.23 80.2667 1832.8 83.6667 1828.46 86.2C1824.2 88.7333 1819.53 90 1814.46 90H1788.56ZM1860.49 89.9V20.3H1864.39L1912.99 67.6V20.3H1916.69V89.9H1860.49ZM1936.61 90V20.4H1962.51C1967.58 20.4 1972.24 21.6667 1976.51 24.2C1980.84 26.7333 1984.28 30.1667 1986.81 34.5C1989.34 38.7667 1990.61 43.4333 1990.61 48.5V61.9C1990.61 66.9667 1989.34 71.6667 1986.81 76C1984.28 80.2667 1980.84 83.6667 1976.51 86.2C1972.24 88.7333 1967.58 90 1962.51 90H1936.61Z" fill="white"/>
<path d="M1988 121C1990.21 121 1992 119.209 1992 117C1992 114.791 1990.21 113 1988 113V121ZM1783 117V121H1988V117V113H1783V117Z" fill="#FF3B30"/>
</svg>
